<?xml version="1.0" encoding="utf-8"?>
<!-- Generator: Adobe Illustrator 15.1.0, SVG Export Plug-In . SVG Version: 6.00 Build 0)  -->
<!DOCTYPE svg PUBLIC "-//W3C//DTD SVG 1.1//EN" "http://www.w3.org/Graphics/SVG/1.1/DTD/svg11.dtd">
<svg version="1.1" id="Layer_1" xmlns="http://www.w3.org/2000/svg" xmlns:xlink="http://www.w3.org/1999/xlink" x="0px" y="0px"
	 width="1224px" height="792px" viewBox="0 0 1224 792" enable-background="new 0 0 1224 792" xml:space="preserve">
<g>
	<g>
		<path d="M138.81,532.067H241.03c12.556,0,21.45,2.289,26.677,6.863c5.641,5.02,8.461,13.809,8.461,26.369
			c0,9.697-1.17,16.943-3.508,21.725c-2.445,4.805-6.541,8.332-12.286,10.566c6.368,2.754,10.621,5.578,12.752,8.463
			c2.028,2.863,3.042,7.766,3.042,14.705v25.545H241.03v-20.436c0-2.99-0.86-5.551-2.574-7.686
			c-2.004-2.551-4.979-3.816-8.932-3.816h-55.577v31.938H138.81V532.067z M173.948,561.632v23.166h56.359
			c3.846,0,6.614-0.844,8.304-2.535c1.612-1.613,2.419-4.6,2.419-8.965c0-4.369-0.86-7.4-2.574-9.088
			c-1.692-1.719-4.408-2.578-8.15-2.578H173.948z"/>
		<polygon points="330.84,646.304 330.84,532.067 453.848,532.067 453.848,559.722 365.979,559.722 365.979,575.519 449.83,575.519 
			449.83,603.013 365.979,603.013 365.979,618.653 453.848,618.653 453.848,646.304 		"/>
		<polygon points="505.862,561.632 505.862,532.067 641.821,532.067 641.821,561.632 591.505,561.632 591.505,646.304 
			556.367,646.304 556.367,561.632 		"/>
		<path d="M723.192,532.224h60.37l56.551,114.08h-41.03l-10.879-18.992H718.55l-10.84,18.992h-41.067L723.192,532.224z
			 M756.108,557.962h-5.417l-19.035,39.783h43.445L756.108,557.962z"/>
		<rect x="884.568" y="532.421" width="35.145" height="114.033"/>
		<polygon points="969.762,532.224 1004.896,532.224 1004.896,616.741 1084.614,616.741 1084.614,646.304 969.762,646.304 		"/>
	</g>
	<g>
		<path d="M1181.255,106.734v161.009c0,89.237-17.545,223.68-188.97,223.68H41.255V327.354c0-33.715,4.042-64.152,12.131-91.347
			c8.08-27.185,19.88-50.353,35.354-69.538c15.501-19.17,34.411-33.921,56.782-44.252c22.363-10.323,47.834-15.483,76.4-15.483
			H1181.255z"/>
		<g>
			<g>
				<polygon fill="#FFFFFF" points="638.721,432.798 638.721,288.292 725.702,210.032 725.702,432.798 				"/>
				<polygon fill="#FFFFFF" points="638.721,244.358 638.721,163.079 730.282,163.079 				"/>
			</g>
			<path fill="#FFFFFF" d="M285.853,165.368l70.41,150.179c0.789,1.771,1.798,7.495,3.02,17.199
				c1.033,9.993,2.165,15.002,3.38,15.002c0.975,0,1.982-2.996,3.016-8.972c0.733-5.734,1.866-13.47,3.39-23.229l70.411-150.179
				h140.448v267.43h-82.388V245.856c0-3.229,0.612-7.226,1.83-11.987c1.277-4.75,1.918-7.622,1.918-8.586
				c0-2.022-0.765-3.022-2.285-3.022c-0.975,0-2.218,1.368-3.753,4.113c-1.521,2.987-2.769,5.733-3.744,8.229l-95.098,198.195
				h-67.485l-102.6-198.929c-1.458-3.228-2.836-6.092-4.11-8.586c-1.226-2.505-2.347-3.757-3.385-3.757
				c-1.466,0-2.195,0.887-2.195,2.656c0,0.232,0.854,4.358,2.562,12.344c0.789,3.471,1.181,6.341,1.181,8.596v187.675h-82.48
				v-267.43H285.853z"/>
			<path fill="#ED3424" d="M1060.286,180.142c-16.479-12.506-66.947-18.751-151.413-18.751c-51.982,0-85.46,4.992-100.453,14.992
				c-14.948,10.235-22.415,34.583-22.415,73.038c0,36.693,7.596,60.514,22.774,71.488c15.259,11.03,48.616,16.55,100.094,16.55
				c29.224,0,52.097-1.53,68.637-4.572c16.216-2.988,28.325-8.462,36.315-16.441c-1.521,3.239-2.917,6.109-4.16,8.615
				c-1.252,2.494-1.87,4.383-1.87,5.671c0,20.263-2.604,29.134-8.337,33.134c-5.732,3.996-24.241,6.76-53.204,6.76
				c-11.637,0-133.058,0.313-156.887,0.451l-0.061,61.722h152.895c67.161,0,109.541-8.643,123.075-21.15
				c14.463-13.227,19.338-46.433,19.338-112.342C1084.614,232.604,1076.5,192.889,1060.286,180.142 M995.811,269.672
				c-7.988,2.754-27.962,4.125-59.907,4.125c-32.442,0-52.532-1.253-60.27-3.759c-8.051-2.503-12.074-9.374-12.074-20.617
				c0-10.992,4.023-17.864,12.074-20.62c7.978-2.502,28.077-3.756,60.27-3.756c32.437,0,52.536,1.136,60.271,3.391
				c7.737,2.514,11.62,9.5,11.62,20.985C1007.795,260.423,1003.796,267.167,995.811,269.672"/>
		</g>
	</g>
</g>
</svg>
